<svg width="41" height="26" viewBox="0 0 41 26" fill="none" xmlns="http://www.w3.org/2000/svg">
<g clip-path="url(#clip0_7895_31509)">
<path d="M33.1821 3H7.81843C6.26199 3 5.00024 4.11929 5.00024 5.5V20.5C5.00024 21.8807 6.26199 23 7.81843 23H33.1821C34.7385 23 36.0002 21.8807 36.0002 20.5V5.5C36.0002 4.11929 34.7385 3 33.1821 3Z" fill="white"/>
<path fill-rule="evenodd" clip-rule="evenodd" d="M7.81843 4C6.69829 4 6.00024 4.78082 6.00024 5.5V20.5C6.00024 21.2192 6.69829 22 7.81843 22H33.1821C34.3022 22 35.0002 21.2192 35.0002 20.5V5.5C35.0002 4.78082 34.3022 4 33.1821 4H7.81843ZM4.00024 5.5C4.00024 3.45776 5.82568 2 7.81843 2H33.1821C35.1748 2 37.0002 3.45776 37.0002 5.5V20.5C37.0002 22.5422 35.1748 24 33.1821 24H7.81843C5.82568 24 4.00024 22.5422 4.00024 20.5V5.5Z" fill="#7E859B"/>
<path d="M12.0711 13V13.9806H11.0914V13H12.0711ZM13.4411 13V13.9806H12.4614V13H13.4411ZM15.0261 17.4957L15.1058 17.9558L15.0261 18.4159H11.9915C10.6295 18.4159 10.0002 17.805 10.0002 16.5151C10.0002 15.2026 10.6135 14.569 11.9357 14.569H14.1181V17.4957H15.0261ZM11.0675 16.5151C11.0675 17.3222 11.2587 17.4957 11.9915 17.4957H13.0508V15.4892H11.9357C11.2587 15.4892 11.0675 15.6778 11.0675 16.5151Z" fill="#7E859B"/>
<path d="M17.4087 13V13.9806H16.429V13H17.4087ZM18.7787 13V13.9806H17.799V13H18.7787ZM17.799 14.6519C18.3645 14.6519 18.8265 14.6972 19.384 14.75V18.4159H14.8679L14.7882 17.9558L14.8679 17.4957H15.752C15.7042 17.2694 15.6803 16.9903 15.6803 16.6433C15.6803 14.9914 16.2378 14.6519 17.799 14.6519ZM17.329 17.4957H18.3167V15.5873C18.1494 15.5797 17.9822 15.5722 17.799 15.5722C16.883 15.5722 16.7476 15.6175 16.7476 16.6433C16.7476 17.4806 16.8352 17.4957 17.329 17.4957Z" fill="#7E859B"/>
<path d="M22.3503 17.4957L22.43 17.9558L22.3503 18.4159H20.4228V13.1358H21.4901V17.4957H22.3503Z" fill="#7E859B"/>
<path d="M28.822 17.4957L28.9017 17.9558L28.822 18.4159H22.1872L22.1076 17.9558L22.1872 17.4957H22.9359V13.1358H24.0032V15.8513C24.5926 15.1573 25.1502 14.569 26.2334 14.569C27.7229 14.569 28.0733 15.6853 28.0733 16.5226V17.4957H28.822ZM25.9945 15.4892C24.8316 15.4892 24.0032 17.2468 24.0032 17.4278V17.4957H27.006V16.7187C27.006 16.07 26.6635 15.4892 25.9945 15.4892Z" fill="#7E859B"/>
<path d="M29.9329 14.6444H31.0002V18.4159H28.6665L28.5869 17.9558L28.6665 17.4957H29.9329V14.6444ZM29.9887 20V19.0194H30.9684V20H29.9887Z" fill="#7E859B"/>
<path fill-rule="evenodd" clip-rule="evenodd" d="M4.00024 9C4.00024 8.44772 4.44796 8 5.00024 8H36.0002C36.5525 8 37.0002 8.44772 37.0002 9C37.0002 9.55228 36.5525 10 36.0002 10H5.00024C4.44796 10 4.00024 9.55228 4.00024 9Z" fill="#7E859B"/>
</g>
<defs>
<clipPath id="clip0_7895_31509">
<rect width="41" height="26" fill="white"/>
</clipPath>
</defs>
</svg>
