<svg width="41" height="26" viewBox="0 0 41 26" fill="none" xmlns="http://www.w3.org/2000/svg">
<g clip-path="url(#clip0_7895_31503)">
<path d="M33.1821 3H7.81843C6.26199 3 5.00024 4.11929 5.00024 5.5V20.5C5.00024 21.8807 6.26199 23 7.81843 23H33.1821C34.7385 23 36.0002 21.8807 36.0002 20.5V5.5C36.0002 4.11929 34.7385 3 33.1821 3Z" fill="white"/>
<path fill-rule="evenodd" clip-rule="evenodd" d="M7.81843 4C6.69829 4 6.00024 4.78082 6.00024 5.5V20.5C6.00024 21.2192 6.69829 22 7.81843 22H33.1821C34.3022 22 35.0002 21.2192 35.0002 20.5V5.5C35.0002 4.78082 34.3022 4 33.1821 4H7.81843ZM4.00024 5.5C4.00024 3.45776 5.82568 2 7.81843 2H33.1821C35.1748 2 37.0002 3.45776 37.0002 5.5V20.5C37.0002 22.5422 35.1748 24 33.1821 24H7.81843C5.82568 24 4.00024 22.5422 4.00024 20.5V5.5Z" fill="#7E859B"/>
<path fill-rule="evenodd" clip-rule="evenodd" d="M4.00024 9C4.00024 8.44772 4.44796 8 5.00024 8H36.0002C36.5525 8 37.0002 8.44772 37.0002 9C37.0002 9.55228 36.5525 10 36.0002 10H5.00024C4.44796 10 4.00024 9.55228 4.00024 9Z" fill="#7E859B"/>
<path d="M11.2051 16.6438C11.0684 16.3191 11 15.9675 11 15.5891C11 15.2107 11.0684 14.8604 11.2051 14.5381C11.3418 14.2134 11.5286 13.9399 11.7654 13.7178C12.0046 13.4932 12.2878 13.3174 12.615 13.1904C12.9421 13.0635 13.2913 13 13.6624 13C13.926 13 14.1714 13.0342 14.3984 13.1025C14.6279 13.1685 14.8257 13.2612 14.9917 13.3809C15.1602 13.5005 15.3054 13.6299 15.4275 13.769C15.5496 13.9058 15.6582 14.0571 15.7534 14.2231L14.8379 14.6736C14.7305 14.4636 14.5706 14.2903 14.3582 14.1536C14.1458 14.0168 13.9138 13.9485 13.6624 13.9485C13.2083 13.9485 12.8335 14.1035 12.5381 14.4136C12.2427 14.7236 12.095 15.1155 12.095 15.5891C12.095 16.0627 12.2427 16.4558 12.5381 16.7683C12.8335 17.0784 13.2083 17.2334 13.6624 17.2334C13.9138 17.2334 14.1458 17.165 14.3582 17.0283C14.5706 16.8916 14.7305 16.717 14.8379 16.5046L15.7534 16.9478C15.2798 17.7681 14.5828 18.1782 13.6624 18.1782C13.2913 18.1782 12.9421 18.1147 12.615 17.9878C12.2878 17.8608 12.0046 17.6863 11.7654 17.4641C11.5286 17.2395 11.3418 16.9661 11.2051 16.6438Z" fill="#7E859B"/>
<path d="M15.8047 18.0867L17.7383 13.0842H19.075L21.0012 18.0867H19.7854L19.4778 17.2407H17.3354L17.0205 18.0867H15.8047ZM17.6248 16.3032H19.1848L18.4048 14.1499L17.6248 16.3032Z" fill="#7E859B"/>
<path d="M21.4626 18.0867V13.0842H23.8027C24.3154 13.0842 24.7231 13.2344 25.0259 13.5347C25.3311 13.835 25.4836 14.2219 25.4836 14.6956C25.4836 14.908 25.4519 15.1033 25.3884 15.2815C25.3274 15.4597 25.2432 15.6086 25.1357 15.7283C25.0308 15.8455 24.9148 15.9419 24.7878 16.0176C24.6633 16.0933 24.5303 16.1482 24.3887 16.1824L25.5129 18.0867H24.2898L23.3083 16.3105H22.5283V18.0867H21.4626ZM22.5283 15.373H23.6453C23.865 15.373 24.0444 15.312 24.1836 15.1899C24.3252 15.0679 24.396 14.9031 24.396 14.6956C24.396 14.488 24.3252 14.3245 24.1836 14.2048C24.0444 14.0828 23.865 14.0217 23.6453 14.0217H22.5283V15.373Z" fill="#7E859B"/>
<path d="M26.282 18.0867V13.0842H28.2559C28.7734 13.0842 29.2336 13.188 29.6365 13.3955C30.0393 13.6006 30.3518 13.8936 30.574 14.2744C30.7986 14.6553 30.9109 15.0935 30.9109 15.5891C30.9109 16.0847 30.7986 16.5229 30.574 16.9038C30.3518 17.2822 30.0393 17.574 29.6365 17.7791C29.2336 17.9841 28.7734 18.0867 28.2559 18.0867H26.282ZM27.3477 17.1492H28.2559C28.7344 17.1492 29.1152 16.999 29.3984 16.6987C29.6816 16.3984 29.8232 16.0286 29.8232 15.5891C29.8232 15.1277 29.6865 14.7517 29.4131 14.4612C29.1396 14.1682 28.7539 14.0217 28.2559 14.0217H27.3477V17.1492Z" fill="#7E859B"/>
</g>
<defs>
<clipPath id="clip0_7895_31503">
<rect width="41" height="26" fill="white"/>
</clipPath>
</defs>
</svg>
