<svg width="41" height="26" viewBox="0 0 41 26" fill="none" xmlns="http://www.w3.org/2000/svg">
<g clip-path="url(#clip0_7895_31520)">
<path d="M33.1821 3H7.81843C6.26199 3 5.00024 4.11929 5.00024 5.5V20.5C5.00024 21.8807 6.26199 23 7.81843 23H33.1821C34.7385 23 36.0002 21.8807 36.0002 20.5V5.5C36.0002 4.11929 34.7385 3 33.1821 3Z" fill="white"/>
<path fill-rule="evenodd" clip-rule="evenodd" d="M7.81843 4C6.69829 4 6.00024 4.78082 6.00024 5.5V20.5C6.00024 21.2192 6.69829 22 7.81843 22H33.1821C34.3022 22 35.0002 21.2192 35.0002 20.5V5.5C35.0002 4.78082 34.3022 4 33.1821 4H7.81843ZM4.00024 5.5C4.00024 3.45776 5.82568 2 7.81843 2H33.1821C35.1748 2 37.0002 3.45776 37.0002 5.5V20.5C37.0002 22.5422 35.1748 24 33.1821 24H7.81843C5.82568 24 4.00024 22.5422 4.00024 20.5V5.5Z" fill="#6FA059"/>
<path d="M12.5683 17.2779C11.4502 17.2779 10.0002 16.6726 10.0002 15.2489C10.0002 14.8227 10.1313 14.0298 10.2361 13.5439L11.328 13.7144C11.2581 14.1492 11.1707 14.8227 11.1707 15.0784C11.1707 15.7178 11.7036 16.2379 12.5246 16.2379H14.9355C15.5557 16.2379 15.8614 15.9821 15.8614 15.1296C15.8614 14.6863 15.4421 14.5499 14.7957 14.3708C13.4418 13.9957 12.9527 13.5439 12.9527 12.6232C12.9527 11.4638 13.7213 10.9011 14.9792 10.9011C15.5033 10.9011 15.94 10.9608 16.9358 11.1313L16.8397 12.0605C16.0186 11.9668 15.4421 11.9241 15.1015 11.9241C14.4638 11.9241 14.1493 12.1287 14.1493 12.5379C14.1493 12.9898 14.6909 13.1262 15.4945 13.3734C16.6475 13.74 17.0581 14.098 17.0581 15.0529C17.0581 16.6471 16.2283 17.2779 15.0054 17.2779H12.5683ZM12.3237 19V17.8917H13.3981V19H12.3237ZM13.8262 19V17.8917H14.9006V19H13.8262Z" fill="#6FA059"/>
<path d="M22.9036 14.1236L22.9909 14.6436L22.9036 15.1637H17.9334V14.1236H20.7373V13.8167C20.7373 12.1799 19.9337 11.7621 19.2873 11.7621H18.405L18.3177 10.867C18.6147 10.7988 19.1475 10.705 19.5668 10.705C20.9382 10.705 21.9078 11.6939 21.9078 13.7059V14.1236H22.9036Z" fill="#6FA059"/>
<path d="M25.6868 9.04263V10.1509H24.6124V9.04263H25.6868ZM27.1892 9.04263V10.1509H26.1148V9.04263H27.1892ZM28.613 14.1236L28.7004 14.6436L28.613 15.1637H22.7256L22.6383 14.6436L22.7256 14.1236H23.6952C23.6428 13.8679 23.6166 13.5524 23.6166 13.1603C23.6166 11.2933 24.2281 10.9096 25.9401 10.9096C26.5603 10.9096 27.0669 10.9608 27.6784 11.0205V14.1236H28.613ZM25.4247 14.1236H26.5079V11.9668C26.3244 11.9582 26.141 11.9497 25.9401 11.9497C24.9356 11.9497 24.7871 12.0009 24.7871 13.1603C24.7871 14.1066 24.8832 14.1236 25.4247 14.1236Z" fill="#6FA059"/>
<path d="M30.9653 9V10.1083H29.8909V9H30.9653ZM29.8298 10.9011H31.0002V15.1637H28.4409L28.3536 14.6436L28.4409 14.1236H29.8298V10.9011Z" fill="#6FA059"/>
</g>
<defs>
<clipPath id="clip0_7895_31520">
<rect width="41" height="26" fill="white"/>
</clipPath>
</defs>
</svg>
