<svg width="16" height="17" viewBox="0 0 16 17" fill="none" xmlns="http://www.w3.org/2000/svg">
<path fill-rule="evenodd" clip-rule="evenodd" d="M12.6023 4.6633V5.94108C14.0376 6.38909 15.0834 7.68841 15.0834 9.2403V13.3544C15.0834 15.2756 13.4906 16.8333 11.5269 16.8333H4.47408C2.50955 16.8333 0.916748 15.2756 0.916748 13.3544V9.2403C0.916748 7.68841 1.96337 6.38909 3.39782 5.94108V4.6633C3.40629 2.17895 5.46397 0.166626 7.98738 0.166626C10.5447 0.166626 12.6023 2.17895 12.6023 4.6633ZM8.00438 1.61587C9.72335 1.61587 11.1205 2.98226 11.1205 4.66333V5.76142H4.87976V4.64677C4.88823 2.97398 6.28542 1.61587 8.00438 1.61587ZM8.74095 12.2125C8.74095 12.6182 8.4107 12.9412 7.99578 12.9412C7.58932 12.9412 7.25908 12.6182 7.25908 12.2125V10.374C7.25908 9.97654 7.58932 9.65357 7.99578 9.65357C8.4107 9.65357 8.74095 9.97654 8.74095 10.374V12.2125Z" fill="#7E859B"/>
</svg>
